  <svg
      width="16"
      height="16"
      viewBox="0 0 16 16"
      fill="none"
      xmlns="http://www.w3.org/2000/svg"
    >
      <g clipPath="url(#clip0_2_55)">
        <path
          d="M4.66667 4.66666H4.00001C3.64638 4.66666 3.30724 4.80713 3.0572 5.05718C2.80715 5.30723 2.66667 5.64637 2.66667 5.99999V12C2.66667 12.3536 2.80715 12.6928 3.0572 12.9428C3.30724 13.1928 3.64638 13.3333 4.00001 13.3333H10C10.3536 13.3333 10.6928 13.1928 10.9428 12.9428C11.1929 12.6928 11.3333 12.3536 11.3333 12V11.3333"
          stroke="black"
          strokeLinecap="round"
          strokeLinejoin="round"
        />
        <path
          d="M13.59 4.39001C13.8526 4.12745 14.0001 3.77133 14.0001 3.40001C14.0001 3.02869 13.8526 2.67257 13.59 2.41001C13.3274 2.14745 12.9713 1.99994 12.6 1.99994C12.2287 1.99994 11.8726 2.14745 11.61 2.41001L6 8.00001V10H8L13.59 4.39001Z"
          stroke="black"
          strokeLinecap="round"
          strokeLinejoin="round"
        />
        <path
          d="M10.6667 3.33334L12.6667 5.33334"
          stroke="black"
          strokeLinecap="round"
          strokeLinejoin="round"
        />
      </g>
      <defs>
        <clipPath id="clip0_2_55">
          <rect width="16" height="16" fill="white" />
        </clipPath>
      </defs>
    </svg>